<?xml version="1.0" encoding="utf-8"?>
<!-- Generator: Adobe Illustrator 27.4.1, SVG Export Plug-In . SVG Version: 6.00 Build 0)  -->
<svg version="1.1" id="Layer_3" xmlns="http://www.w3.org/2000/svg" xmlns:xlink="http://www.w3.org/1999/xlink" x="0px" y="0px"
	 viewBox="0 0 890 376.5" style="enable-background:new 0 0 890 376.5;" xml:space="preserve">
<style type="text/css">
	.st0{clip-path:url(#SVGID_00000128475207926829555690000008099896804394673852_);}
	.st1{fill:#F3F3F3;}
</style>
<g>
	<g>
		<defs>
			<rect id="SVGID_1_" x="-0.1" y="0" width="890" height="376.5"/>
		</defs>
		<clipPath id="SVGID_00000092453385229234903120000001336233961902545596_">
			<use xlink:href="#SVGID_1_"  style="overflow:visible;"/>
		</clipPath>
		<g style="clip-path:url(#SVGID_00000092453385229234903120000001336233961902545596_);">
			<path class="st1" d="M276.6,158.4v33.1c0,8.5,5.9,16,14.2,18c40,9.3,85.9,7.7,85.9,34.8c0,20.3-17.3,31.7-46.1,31.7
				c-23.2,0-39.2-6-47.5-18.8c-1.9-2.9-6.5-1.4-6.5,2.1v37.8c0,2.6,1.6,5,4.1,5.8c14,4.7,30.2,7.1,48.2,7.1
				c54.9,0,96.3-25.4,96.3-69.7c0-70.7-85.2-61-124.7-73.9c-4.6-1.5-12.8-4.4-19.8-9.7C279,155.1,276.6,156.3,276.6,158.4
				 M321.7,115c28.3,0,44.4,12.2,48.2,34.2c0.4,2.5,2.1,4.2,4.6,4.2h38.9c2.1,0,4.2-2.1,3.8-4.2c-3.4-44.8-41-67.2-94.6-67.2
				c-15.6,0-29.7,1.9-41.8,5.5c-2.5,0.8-4.2,3.2-4.2,5.8v39.3c0,2.2,2.7,3.1,4.1,1.5c2.1-2.4,3.6-4.4,5.6-6.7
				C293.7,119.5,305.5,115,321.7,115"/>
			<path class="st1" d="M549.4,273c34.2,0,54.1-25.3,54.5-75.6s-19-78.2-53.2-78.6c-37.2-0.4-54.9,27.9-54.9,74.4
				C495.7,243.8,513.9,273,549.4,273 M606,304.7c-2.1,0-4.2-2.1-4.2-4.2l0.8-25.8c-14.8,21.5-37.6,34.2-66.8,34.2
				c-60.4,0-92.1-49-92.1-112.4s34.7-113.6,93-113.6c28.7,0,51.1,11,65.9,32.1l-1.3-23.7c0-2.1,2.1-4.2,4.2-4.2h43.1
				c2.1,0,4.2,2.1,4.2,4.2l-1.3,103.9l1.3,105.2c0,2.1-2.1,4.2-4.2,4.2L606,304.7L606,304.7z"/>
			<path class="st1" d="M783,272.6c36.8,0,54.9-27.9,54.9-74.4c0-49.4-17.7-78.6-54.1-78.6c-33.8,0-53.7,25.4-54.1,74.4
				C729.3,244.3,748.3,272.6,783,272.6 M796.5,308.9c-28.3,0-49.9-11-64.6-31.3l0.8,94.6c0,2.1-2.1,4.2-4.2,4.2h-43.9
				c-2.1,0-4.2-2.1-4.2-4.2l1.7-158.9l-1.7-122.1c0-2.1,2.1-4.2,4.2-4.2h43.1c2.1,0,4.2,2.1,4.2,4.2l-0.8,25.4
				c14.8-21.1,37.6-33.8,66.8-33.8c60,0,92.1,49,92.1,112.4S854.8,308.9,796.5,308.9"/>
			<path class="st1" d="M219.3,5.3v40.2c0,2.9,2.4,5.3,5.3,5.3h38.3c2.9,0,5.3-2.4,5.3-5.3V5.3c0-2.9-2.4-5.3-5.3-5.3h-38.3
				C221.7,0,219.3,2.4,219.3,5.3"/>
			<path class="st1" d="M105.9,270.7c34.3,0,54.3-25.5,54.7-75.9c0.4-50.5-19.1-78.5-53.4-78.9c-37.3-0.4-55.1,28-55.1,74.6
				C52.1,241.4,70.3,270.7,105.9,270.7 M162.8,302.5c-2.1,0-4.2-2.1-4.2-4.2l0.9-25.9c-14.9,21.6-37.8,34.3-67,34.3
				C31.8,306.7,0,257.5,0,193.9S34.8,79.8,93.3,79.8c28.8,0,51.3,11,66.2,32.2l-1.3-23.8c0-2.1,2.1-4.2,4.2-4.2h43.3
				c2.1,0,4.2,2.1,4.2,4.2l-1.3,104.3l1.3,105.6c0,2.1-2.1,4.2-4.2,4.2L162.8,302.5L162.8,302.5z"/>
		</g>
	</g>
</g>
</svg>
